<?xml version="1.0" encoding="UTF-8" ?>
<!DOCTYPE svg PUBLIC "-//W3C//DTD SVG 1.1//EN" "http://www.w3.org/Graphics/SVG/1.1/DTD/svg11.dtd">
<svg width="41pt" height="41pt" viewBox="0 0 41 41" version="1.1" xmlns="http://www.w3.org/2000/svg">
<g id="#ffffffff">
<path fill="#ffffff" opacity="1.00" d=" M 20.29 0.00 L 20.87 0.00 C 20.93 0.42 21.05 1.27 21.11 1.69 C 20.83 3.02 19.69 3.89 18.82 4.83 C 13.99 9.54 9.27 14.36 4.59 19.20 C 16.72 19.33 28.86 19.28 41.00 19.23 L 41.00 21.73 C 28.90 21.78 16.79 21.64 4.69 21.81 C 10.27 27.69 16.27 33.17 21.82 39.07 C 21.53 39.56 20.94 40.52 20.64 41.00 L 20.18 41.00 C 13.56 34.19 6.71 27.60 0.04 20.84 L 0.00 22.02 L 0.00 20.27 C 6.58 13.34 13.46 6.68 20.29 0.00 Z" />
</g>
</svg>
