<?xml version="1.0" encoding="UTF-8" ?>
<!DOCTYPE svg PUBLIC "-//W3C//DTD SVG 1.1//EN" "http://www.w3.org/Graphics/SVG/1.1/DTD/svg11.dtd">
<svg width="57pt" height="57pt" viewBox="0 0 57 57" version="1.1" xmlns="http://www.w3.org/2000/svg">
<g id="#ffffffff">
<path fill="#ffffff" opacity="1.00" d=" M 4.54 6.62 C 5.88 5.83 7.52 6.08 9.01 5.98 C 22.01 6.01 35.02 6.01 48.02 5.99 C 49.89 6.00 52.08 5.94 53.44 7.49 C 55.10 8.82 54.73 11.11 54.83 12.98 C 54.77 24.32 54.87 35.66 54.78 46.99 C 55.09 50.07 51.99 52.34 49.11 51.99 C 35.03 51.98 20.96 52.06 6.88 51.96 C 3.80 52.10 1.57 49.02 1.89 46.12 C 1.89 34.70 1.89 23.29 1.89 11.88 C 1.81 9.83 2.59 7.58 4.54 6.62 M 4.82 11.82 C 4.83 19.85 4.76 27.89 4.87 35.92 C 20.55 33.32 36.22 30.69 51.89 28.09 C 51.77 22.05 52.14 15.99 51.72 9.97 C 50.87 8.81 49.31 9.08 48.07 8.99 C 34.36 9.06 20.64 8.91 6.93 9.05 C 5.48 8.80 4.67 10.64 4.82 11.82 M 4.82 38.97 C 4.82 41.74 4.81 44.50 4.81 47.27 C 5.08 47.69 5.64 48.52 5.91 48.93 C 19.95 49.09 34.00 48.94 48.04 49.02 C 49.30 48.95 50.78 49.13 51.72 48.09 C 52.14 42.45 51.77 36.79 51.89 31.14 C 36.19 33.71 20.51 36.37 4.82 38.97 Z" />
<path fill="#ffffff" opacity="1.00" d=" M 13.17 16.13 C 16.38 13.94 19.58 19.56 16.13 21.29 C 12.94 23.39 9.65 17.83 13.17 16.13 Z" />
</g>
</svg>
