<?xml version="1.0" encoding="UTF-8" ?>
<!DOCTYPE svg PUBLIC "-//W3C//DTD SVG 1.1//EN" "http://www.w3.org/Graphics/SVG/1.1/DTD/svg11.dtd">
<svg width="57pt" height="57pt" viewBox="0 0 57 57" version="1.1" xmlns="http://www.w3.org/2000/svg">
<g id="#fefefefe">
<path fill="#fefefe" opacity="1.00" d=" M 22.50 2.70 C 37.06 -1.18 53.08 9.92 54.74 24.84 C 57.09 38.82 46.22 53.10 32.18 54.74 C 18.20 57.09 3.86 46.21 2.26 32.15 C 0.10 19.02 9.52 5.44 22.50 2.70 M 22.53 5.78 C 15.41 7.62 9.35 13.01 6.67 19.85 C 3.65 27.22 4.81 36.08 9.60 42.42 C 15.09 50.07 25.41 53.73 34.49 51.22 C 46.17 48.38 54.22 35.62 51.52 23.85 C 49.26 11.02 35.08 2.10 22.53 5.78 Z" />
<path fill="#fefefe" opacity="1.00" d=" M 23.67 22.20 C 24.17 21.35 26.56 21.47 25.31 22.70 C 24.12 23.57 23.33 25.32 21.84 25.62 C 21.17 24.30 22.72 22.93 23.67 22.20 Z" />
<path fill="#fefefe" opacity="1.00" d=" M 26.42 25.46 C 28.54 23.85 31.90 25.39 32.16 28.01 C 32.63 30.72 29.55 33.08 27.06 31.91 C 24.46 30.91 24.03 26.95 26.42 25.46 M 27.19 26.15 C 25.67 26.92 25.31 29.24 26.61 30.39 C 27.98 31.92 30.90 31.05 31.16 28.97 C 31.63 26.81 29.07 25.05 27.19 26.15 Z" />
<path fill="#fefefe" opacity="1.00" d=" M 46.87 32.32 L 48.80 32.67 C 46.78 40.29 40.65 46.90 32.83 48.58 L 32.15 46.89 C 39.23 45.00 44.93 39.39 46.87 32.32 Z" />
</g>
</svg>
