<?xml version="1.0" encoding="UTF-8" ?>
<!DOCTYPE svg PUBLIC "-//W3C//DTD SVG 1.1//EN" "http://www.w3.org/Graphics/SVG/1.1/DTD/svg11.dtd">
<svg width="57pt" height="57pt" viewBox="0 0 57 57" version="1.1" xmlns="http://www.w3.org/2000/svg">
<g id="#fefefefe">
<path fill="#fefefe" opacity="1.00" d=" M 6.06 2.14 C 20.35 1.81 34.67 2.10 48.97 2.00 C 51.89 1.55 55.03 3.72 54.99 6.82 C 55.16 20.89 55.03 34.97 55.06 49.04 C 55.42 51.95 53.24 55.06 50.15 54.96 C 36.09 55.06 22.02 54.98 7.96 55.00 C 5.06 55.38 1.93 53.15 2.15 50.06 C 2.09 35.70 2.09 21.33 2.15 6.97 C 2.00 4.67 3.79 2.49 6.06 2.14 M 5.12 6.98 C 4.97 19.66 5.13 32.36 5.05 45.05 C 5.10 47.34 4.76 49.74 5.79 51.88 C 8.71 51.75 11.65 51.72 14.57 51.91 C 16.61 46.98 17.18 41.48 19.68 36.78 C 18.99 36.61 18.29 36.44 17.60 36.27 C 16.70 39.60 15.68 42.96 13.79 45.88 C 13.48 47.57 13.26 49.27 13.19 50.99 C 11.31 50.65 9.42 50.50 7.50 50.51 C 8.34 48.20 8.74 45.76 9.71 43.51 C 10.98 40.47 14.59 38.51 13.80 34.81 C 14.15 34.07 14.85 32.58 15.20 31.84 C 11.70 30.57 8.79 28.29 6.65 25.26 C 6.45 23.88 6.27 22.49 6.12 21.11 C 9.45 21.12 12.17 23.11 14.49 25.29 C 15.33 19.62 19.65 14.84 25.07 13.12 C 28.66 11.60 32.61 12.33 36.35 12.64 C 35.71 10.04 31.95 10.17 31.38 7.78 C 32.64 9.48 35.12 9.70 36.17 11.57 C 37.33 13.74 39.15 15.41 40.85 17.14 C 41.63 19.27 42.34 21.49 43.85 23.23 C 46.41 25.97 45.39 29.99 46.52 33.30 C 44.31 33.90 43.59 36.18 42.49 37.91 C 44.85 42.08 46.65 46.61 49.85 50.26 C 50.40 50.59 51.50 51.26 52.05 51.60 C 52.18 37.05 52.10 22.50 52.10 7.95 C 52.23 6.73 51.60 4.80 50.03 5.06 C 35.97 4.94 21.90 5.01 7.84 5.02 C 6.62 4.86 4.92 5.46 5.12 6.98 M 17.40 22.97 C 17.21 24.48 17.70 26.31 16.29 27.37 C 13.29 27.97 11.35 25.06 8.75 24.15 C 9.73 25.53 10.88 26.76 12.08 27.94 C 14.73 28.80 17.94 29.93 17.48 33.41 C 17.08 33.61 16.27 33.99 15.87 34.19 C 17.37 34.22 18.86 34.24 20.35 34.26 C 20.85 35.44 21.26 36.64 21.57 37.88 C 20.73 39.46 20.37 41.21 19.81 42.89 C 19.05 45.99 17.93 48.99 16.92 52.01 C 27.51 52.00 38.11 51.89 48.70 52.07 C 47.62 51.57 46.79 50.81 46.22 49.80 C 43.94 46.42 42.66 42.49 40.41 39.12 C 40.42 37.80 40.40 36.41 41.22 35.29 C 42.06 34.09 42.90 32.89 43.77 31.71 C 43.55 30.01 43.49 28.29 43.22 26.60 C 42.34 24.63 40.58 23.17 39.80 21.13 C 39.41 18.86 37.74 17.22 36.20 15.66 C 29.34 12.47 20.29 15.94 17.40 22.97 M 10.18 47.21 C 10.77 47.78 10.77 47.78 10.18 47.21 Z" />
</g>
</svg>
