<?xml version="1.0" encoding="UTF-8" ?>
<!DOCTYPE svg PUBLIC "-//W3C//DTD SVG 1.1//EN" "http://www.w3.org/Graphics/SVG/1.1/DTD/svg11.dtd">
<svg width="57pt" height="57pt" viewBox="0 0 57 57" version="1.1" xmlns="http://www.w3.org/2000/svg">
<g id="#ffffffff">
<path fill="#ffffff" opacity="1.00" d=" M 4.46 2.70 C 5.84 1.84 7.54 2.06 9.09 1.98 C 22.04 2.08 35.00 1.88 47.95 2.08 C 50.00 1.48 49.98 5.47 47.99 4.92 C 34.64 5.13 21.28 4.92 7.92 5.01 C 6.65 4.80 4.85 5.44 5.05 7.02 C 4.90 20.36 5.07 33.70 4.98 47.03 C 5.49 48.84 3.80 50.26 2.22 49.03 C 1.70 36.06 2.17 23.03 1.98 10.04 C 1.90 7.44 1.80 4.13 4.46 2.70 Z" />
<path fill="#ffffff" opacity="1.00" d=" M 6.14 28.90 C 5.31 16.80 16.56 5.28 28.69 6.25 C 28.69 6.61 28.67 7.31 28.67 7.66 C 23.08 8.37 17.34 10.15 13.52 14.54 C 9.82 18.24 8.39 23.41 7.72 28.44 C 7.32 28.56 6.54 28.78 6.14 28.90 Z" />
<path fill="#ffffff" opacity="1.00" d=" M 52.21 7.93 C 53.84 6.78 55.44 8.13 54.98 9.96 C 54.99 23.36 55.06 36.75 54.95 50.15 C 55.03 53.18 51.96 55.40 49.08 55.00 C 35.71 54.94 22.34 55.12 8.98 54.91 C 7.03 55.49 7.00 51.50 9.03 52.08 C 22.39 51.87 35.76 52.08 49.13 51.99 C 50.38 52.17 52.12 51.57 51.94 50.02 C 52.22 36.00 51.68 21.94 52.21 7.93 Z" />
<path fill="#ffffff" opacity="1.00" d=" M 18.75 14.00 C 24.70 13.23 31.11 11.55 36.88 13.93 C 41.95 16.81 41.42 23.70 40.51 28.61 C 39.33 32.90 34.26 33.64 30.50 33.29 C 30.50 34.69 30.50 36.10 30.50 37.50 C 29.00 37.50 27.50 37.50 26.00 37.50 C 26.00 34.75 26.00 32.00 26.00 29.25 C 29.15 28.93 34.18 30.56 35.58 26.65 C 35.80 23.77 36.74 18.96 32.98 18.01 C 28.27 17.34 23.48 17.93 18.75 18.05 C 18.75 16.70 18.75 15.35 18.75 14.00 Z" />
<path fill="#ffffff" opacity="1.00" d=" M 49.10 28.99 C 49.60 29.00 50.58 29.01 51.08 29.02 C 51.16 40.82 40.81 51.15 29.02 51.09 C 29.01 50.60 29.00 49.60 28.99 49.11 C 39.73 49.12 49.14 39.74 49.10 28.99 Z" />
<path fill="#ffffff" opacity="1.00" d=" M 25.65 40.52 C 27.42 40.51 29.19 40.54 30.96 40.69 C 30.98 42.52 30.98 44.35 30.96 46.18 C 29.14 46.23 27.32 46.23 25.50 46.17 C 25.49 44.28 25.56 42.40 25.65 40.52 Z" />
</g>
</svg>
